<svg xmlns="http://www.w3.org/2000/svg" width="60" height="90" viewBox="0 0 60 90">
  <defs>
    <style>
      .cls-1, .cls-2 {
        fill-rule: evenodd;
      }

      .cls-2 {
        fill: #fff;
      }
    </style>
  </defs>
  <path id="icon_youtube" class="cls-1" d="M21.308,67.545c-3.034-.2-9.794-0.2-12.825,0-3.282.222-3.668,2.178-3.692,7.327,0.024,5.141.407,7.106,3.692,7.327,3.031,0.2,9.79.2,12.825,0,3.281-.221,3.668-2.178,3.692-7.327C24.975,69.732,24.592,67.767,21.308,67.545ZM12.369,78.2v-6.65l6.736,3.319Z"/>
  <path id="icon_youtube_copy" data-name="icon_youtube copy" class="cls-2" d="M51.308,67.545c-3.034-.2-9.794-0.2-12.825,0-3.281.222-3.668,2.178-3.692,7.327,0.024,5.141.407,7.106,3.692,7.327,3.031,0.2,9.79.2,12.825,0,3.281-.221,3.668-2.178,3.692-7.327C54.975,69.732,54.592,67.767,51.308,67.545ZM42.369,78.2v-6.65l6.736,3.319Z"/>
  <path id="icon_instagram" class="cls-1" d="M15.137,36.757c2.695,0,3.014.009,4.079,0.058,2.735,0.123,4.013,1.412,4.138,4.108,0.048,1.058.057,1.375,0.057,4.051s-0.01,2.995-.057,4.05c-0.126,2.7-1.4,3.986-4.138,4.11-1.065.047-1.383,0.058-4.079,0.058s-3.015-.011-4.079-0.058c-2.742-.124-4.013-1.419-4.137-4.11-0.049-1.058-.059-1.374-0.059-4.051s0.011-2.993.059-4.051c0.125-2.7,1.4-3.985,4.137-4.108C12.124,36.766,12.442,36.757,15.137,36.757Zm0-1.807c-2.741,0-3.084.011-4.161,0.06-3.666.167-5.7,2.186-5.871,5.83-0.05,1.07-.062,1.411-0.062,4.133s0.012,3.064.06,4.133c0.168,3.641,2.2,5.664,5.871,5.831C12.053,54.986,12.4,55,15.137,55s3.085-.012,4.162-0.06c3.662-.167,5.7-2.187,5.87-5.831,0.05-1.069.061-1.411,0.061-4.133s-0.011-3.063-.061-4.132c-0.164-3.638-2.2-5.664-5.87-5.831C18.223,34.961,17.878,34.95,15.137,34.95Zm0,4.877a5.148,5.148,0,1,0,5.183,5.147A5.166,5.166,0,0,0,15.137,39.827Zm0,8.489A3.342,3.342,0,1,1,18.5,44.974,3.353,3.353,0,0,1,15.137,48.316Zm5.388-9.9a1.2,1.2,0,1,0,1.211,1.2A1.208,1.208,0,0,0,20.526,38.42Z"/>
  <path id="icon_instagram_copy" data-name="icon_instagram copy" class="cls-2" d="M45.137,36.757c2.695,0,3.014.009,4.079,0.058,2.735,0.123,4.013,1.412,4.138,4.108,0.048,1.058.057,1.375,0.057,4.051s-0.01,2.995-.057,4.05c-0.126,2.7-1.4,3.986-4.138,4.11-1.065.047-1.383,0.058-4.079,0.058s-3.015-.011-4.079-0.058c-2.742-.124-4.013-1.419-4.137-4.11-0.049-1.058-.059-1.374-0.059-4.051s0.011-2.993.059-4.051c0.125-2.7,1.4-3.985,4.137-4.108C42.124,36.766,42.442,36.757,45.137,36.757Zm0-1.807c-2.741,0-3.084.011-4.161,0.06-3.666.167-5.7,2.186-5.871,5.83-0.05,1.07-.062,1.411-0.062,4.133s0.012,3.064.06,4.133c0.168,3.641,2.2,5.664,5.871,5.831C42.053,54.986,42.4,55,45.137,55s3.085-.012,4.162-0.06c3.662-.167,5.7-2.187,5.87-5.831,0.05-1.069.062-1.411,0.062-4.133s-0.011-3.063-.061-4.132c-0.164-3.638-2.2-5.664-5.87-5.831C48.223,34.961,47.878,34.95,45.137,34.95Zm0,4.877a5.148,5.148,0,1,0,5.183,5.147A5.166,5.166,0,0,0,45.137,39.827Zm0,8.489A3.342,3.342,0,1,1,48.5,44.974,3.353,3.353,0,0,1,45.137,48.316Zm5.388-9.9a1.2,1.2,0,1,0,1.211,1.2A1.208,1.208,0,0,0,50.526,38.42Z"/>
  <path id="icon_facebook" class="cls-1" d="M12.391,11.331H10V14.5h2.391V24h3.986V14.5h2.9l0.285-3.167H16.377v-1.32c0-.755.153-1.055,0.889-1.055h2.3V5H16.529c-2.866,0-4.138,1.252-4.138,3.653v2.679Z"/>
  <path id="icon_facebook_copy" data-name="icon_facebook copy" class="cls-2" d="M42.391,11.331H40V14.5h2.391V24h3.986V14.5h2.9l0.285-3.167H46.377v-1.32c0-.755.153-1.055,0.889-1.055h2.3V5H46.529c-2.866,0-4.138,1.252-4.138,3.653v2.679Z"/>
</svg>
