<svg xmlns="http://www.w3.org/2000/svg" width="260" height="20" viewBox="0 0 260 20">
  <defs>
    <style>
      .cls-1 {
        fill: #131313;
        fill-rule: evenodd;
      }
    </style>
  </defs>
  <path id="logo" class="cls-1" d="M259.988,15.771v1.6H246.122V2.514h13.255v1.6H247.7V9.027h6.284v1.607H247.7v5.138h12.284Zm-29.74.136a8.987,8.987,0,0,0,5.877-2.113l1.2,1.089a10.582,10.582,0,0,1-7.072,2.61h-0.042c-4.958,0-9.021-3.391-9.056-7.558V9.908c0.035-4.167,4.1-7.558,9.1-7.558a10.572,10.572,0,0,1,7.072,2.609l-1.2,1.089a9.036,9.036,0,0,0-5.911-2.114c-4.051,0-7.371,2.686-7.4,5.988C222.843,13.223,226.163,15.908,230.248,15.908Zm-20.415-3.594h-7.8l-2.6,5.06h-1.869L205.2,2.469h1.453l7.614,14.905h-1.838Zm-3.905-7.636-3.081,6.029H209Zm-27.682-2.21h1.674v13.3h10.519v1.6H178.246V2.469Zm-13,8.672V11.15h-7.98v6.224h-1.657V2.389h9.637V2.394a4.48,4.48,0,0,1,4.443,4.375A4.475,4.475,0,0,1,165.246,11.141ZM165.11,3.967h-7.85l0.006,5.606h7.844a2.877,2.877,0,0,0,2.934-2.8A2.875,2.875,0,0,0,165.11,3.967Zm-24.29,7.641,3.482,6.005h-4.465l-3.194-5.569h-4.408v5.569h-3.848V2.4h10.641a5.311,5.311,0,0,1,3.892,1.512A4.494,4.494,0,0,1,144.31,7.2a4.179,4.179,0,0,1-1.71,3.536A6.051,6.051,0,0,1,140.82,11.608Zm-0.7-5.314a1.106,1.106,0,0,0-.957-0.378h-6.927V8.632h6.874a1.12,1.12,0,0,0,.957-0.432,1.415,1.415,0,0,0,.345-0.961A1.45,1.45,0,0,0,140.119,6.293ZM105.112,2.4h14.354V5.813H108.883v2.3h5.682v3.436h-5.682v2.644h11.133V17.6h-14.9V2.4ZM89.995,17.6H81.177V2.4h8.765a6.988,6.988,0,0,1,5.466,2.526,7.809,7.809,0,0,1,1.949,5.293,7.138,7.138,0,0,1-2.12,5.031A7.028,7.028,0,0,1,89.995,17.6ZM92.234,7.191a3.376,3.376,0,0,0-2.71-1.276H85v8.306h4.938a2.987,2.987,0,0,0,2.478-1.433,4.34,4.34,0,0,0,.967-2.567A4.54,4.54,0,0,0,92.234,7.191ZM60.545,8.329l-0.084,9.284H56.632V2.361h3.305l0.24,0.275,8.276,9.234V2.361h3.82V17.612H68.891Zm-21.065,9.68c-5.2,0-9.419-3.581-9.419-8s4.218-8,9.419-8,9.418,3.583,9.418,8S44.682,18.008,39.481,18.008Zm0-12.528c-2.944,0-5.332,2.028-5.332,4.529s2.388,4.53,5.332,4.53,5.333-2.029,5.333-4.53S42.425,5.48,39.481,5.48ZM15.84,17.608L12.378,8.53,8.984,17.606H5.856L0.012,2.361H4.062L7.4,11.286l3.417-8.924h3.226L17.405,11.3l3.36-8.943h4.006L18.971,17.6Z"/>
</svg>
