<svg width="112" height="20" viewBox="0 0 112 20" fill="none" xmlns="http://www.w3.org/2000/svg">
<path d="M90.4874 1.67198C92.2838 2.76643 93.4814 4.58201 93.4814 6.65922C93.4814 8.03127 93.0037 9.42885 92.0417 10.4244C90.9556 11.5507 89.3566 11.9751 87.8915 12.3229C86.8467 12.5686 85.63 12.7186 84.6362 13.1206C83.5501 13.5609 82.4321 14.2438 82.4321 15.5967H93.7076V19.298H78.2404V16.1295C78.2404 14.18 79.145 12.3708 81.1071 11.0211C82.5468 10.0319 84.2445 9.50862 85.9326 9.17677C87.4806 8.87045 89.4809 8.71091 89.4809 6.68156C89.4809 4.70326 87.0028 4.07467 85.3274 4.17358C83.394 4.28526 82.0212 5.04786 80.9924 6.15827L78.2245 3.64391C79.6992 1.90172 82.4448 0.513722 85.3274 0.491386C87.2226 0.472241 89.0477 0.794512 90.4874 1.67198Z" fill="#084FFF"/>
<path d="M94.8256 11.1902C94.2459 11.9368 93.7267 12.9228 94.1949 14.3874C94.5644 15.2138 95.211 16.0243 96.9979 16.0243H104.722V19.3012H108.726V16.0243H112V12.6994H108.726C108.726 12.6994 108.726 3.19081 108.726 3.17805C108.726 1.74538 107.614 0.686026 106.12 0.545631C104.881 0.427571 103.547 0.864711 102.703 1.88896L94.8256 11.1902ZM104.722 4.66816V12.6994H97.8993L104.722 4.66816Z" fill="#084FFF"/>
<path d="M54.89 8.75239H44.6178C44.6178 8.75239 44.6178 6.92406 44.6178 6.61136C44.6178 5.18507 45.1784 4.43204 46.6627 4.43204H55.6162V0.730698H45.9779C42.471 0.730698 40.6172 2.80473 40.6172 5.89662V19.3012H44.621V12.0868H54.8932V8.75239H54.89Z" fill="black"/>
<path d="M76.2656 8.76835C76.0363 6.75176 74.9788 4.62668 73.6124 3.27058C71.851 1.52521 69.4717 0.421188 66.7929 0.421188C61.5247 0.421188 57.2661 4.7224 57.2661 9.99681C57.2661 13.4333 59.0944 16.4327 61.8145 18.1174C63.3275 19.0651 65.0857 19.5278 66.8152 19.5278C69.4303 19.5278 71.8988 18.4397 73.6315 16.6592L70.7935 14.164C69.7743 15.1404 68.3218 15.7754 66.8025 15.7786C65.2927 15.7754 63.732 15.1404 62.6905 14.0683C62.1108 13.4716 61.6839 12.7952 61.4036 12.0836H76.1C76.0968 12.0868 76.4854 10.6956 76.2656 8.76835ZM61.1393 8.76516C61.3686 7.71857 61.8878 6.72623 62.6841 5.90938C64.5506 3.99809 67.4841 3.69815 69.6246 4.90747C71.1917 5.79451 72.1281 7.26229 72.4594 8.76516H61.1393Z" fill="black"/>
<path d="M9.99824 16.0944C6.63789 16.0881 3.91775 13.3663 3.91138 10.0032C3.91775 6.64008 6.63789 3.91832 9.99824 3.91193C11.6004 3.91513 13.056 4.53733 14.1453 5.54882L17.0916 2.95788C15.2824 1.13274 12.7725 0 9.99824 0C4.47516 0 0.00318517 4.47671 0 10C0 15.5233 4.47516 20 9.99824 20C12.7534 20 15.2442 18.8864 17.0502 17.0836L14.3587 14.2406C13.2567 15.3829 11.7087 16.0944 9.99824 16.0944Z" fill="black"/>
<path d="M32.6798 0.746651V2.70262C31.5076 1.26675 29.2302 0.449905 27.179 0.449905C21.9107 0.449905 17.6426 4.72878 17.6426 10.0064C17.6426 15.2457 21.8789 19.499 27.0547 19.499C29.1028 19.499 31.2878 18.9247 32.6798 17.2687V19.3044H36.6994V0.746651H32.6798ZM27.1694 15.7754C23.9715 15.7754 21.3788 13.1781 21.3788 9.97448C21.3788 6.7709 23.9715 4.17358 27.1694 4.17358C30.3673 4.17358 32.96 6.7709 32.96 9.97448C32.96 13.1781 30.3673 15.7754 27.1694 15.7754Z" fill="black"/>
</svg>
